<?xml version="1.0" standalone="no"?>
<!DOCTYPE svg PUBLIC "-//W3C//DTD SVG 20010904//EN"
 "http://www.w3.org/TR/2001/REC-SVG-20010904/DTD/svg10.dtd">
<svg version="1.0" xmlns="http://www.w3.org/2000/svg"
 width="233.000000pt" height="163.000000pt" viewBox="0 0 233.000000 163.000000"
 preserveAspectRatio="xMidYMid meet">

<g transform="translate(0.000000,163.000000) scale(0.100000,-0.100000)"
fill="#000000" stroke="none">
<path d="M1057 1099 c-62 -15 -112 -45 -160 -99 -53 -59 -76 -118 -84 -217
-16 -193 66 -337 218 -384 100 -31 186 -25 307 23 l52 20 0 55 0 55 -32 -24
c-164 -125 -357 -95 -429 64 -20 44 -24 69 -24 153 0 84 4 109 24 153 69 153
243 186 407 78 l54 -36 0 53 c0 53 -1 54 -37 71 -95 42 -208 56 -296 35z"/>
<path d="M200 746 l0 -356 45 0 45 0 0 145 0 145 73 0 72 0 115 -145 115 -145
58 0 57 0 -129 157 -129 157 30 15 c111 54 153 205 83 297 -48 63 -97 78 -277
82 l-158 4 0 -356z m291 274 c104 -29 120 -175 26 -244 -22 -16 -47 -21 -127
-24 l-100 -4 0 141 0 141 83 0 c45 0 98 -5 118 -10z"/>
<path d="M1510 745 l0 -355 45 0 45 0 0 135 0 135 78 0 c108 0 177 22 228 74
87 86 84 233 -5 309 -51 42 -118 57 -263 57 l-128 0 0 -355z m306 262 c60 -31
82 -128 45 -197 -29 -54 -71 -73 -173 -78 l-88 -4 0 152 0 152 93 -4 c59 -3
103 -10 123 -21z"/>
</g>
</svg>
